<mxfile host="app.diagrams.net" modified="2023-09-29T20:02:06.069Z" agent="Mozilla/5.0 (Macintosh; Intel Mac OS X 10_15_7) AppleWebKit/537.36 (KHTML, like Gecko) Chrome/117.0.0.0 Safari/537.36" etag="b4ORb_cYbN98LMw3173g" version="22.0.0" type="google">
  <diagram name="PÃ¡gina-1" id="-v9fASD4uueLtztHwe9v">
    <mxGraphModel grid="0" page="1" gridSize="10" guides="1" tooltips="1" connect="1" arrows="1" fold="1" pageScale="1" pageWidth="827" pageHeight="1169" math="0" shadow="0">
      <root>
        <mxCell id="0" />
        <mxCell id="1" parent="0" />
        <mxCell id="7qyP2Q42e92TkhKGGYAC-1" value="Cliente" style="shape=table;startSize=30;container=1;collapsible=1;childLayout=tableLayout;fixedRows=1;rowLines=0;fontStyle=1;align=center;resizeLast=1;html=1;" vertex="1" parent="1">
          <mxGeometry x="140" y="120" width="230" height="280" as="geometry" />
        </mxCell>
        <mxCell id="7qyP2Q42e92TkhKGGYAC-2" value="" style="shape=tableRow;horizontal=0;startSize=0;swimlaneHead=0;swimlaneBody=0;fillColor=none;collapsible=0;dropTarget=0;points=[[0,0.5],[1,0.5]];portConstraint=eastwest;top=0;left=0;right=0;bottom=1;" vertex="1" parent="7qyP2Q42e92TkhKGGYAC-1">
          <mxGeometry y="30" width="230" height="30" as="geometry" />
        </mxCell>
        <mxCell id="7qyP2Q42e92TkhKGGYAC-3" value="PK" style="shape=partialRectangle;connectable=0;fillColor=none;top=0;left=0;bottom=0;right=0;fontStyle=1;overflow=hidden;whiteSpace=wrap;html=1;" vertex="1" parent="7qyP2Q42e92TkhKGGYAC-2">
          <mxGeometry width="29.90476190476187" height="30" as="geometry">
            <mxRectangle width="29.90476190476187" height="30" as="alternateBounds" />
          </mxGeometry>
        </mxCell>
        <mxCell id="7qyP2Q42e92TkhKGGYAC-4" value="cliente_id" style="shape=partialRectangle;connectable=0;fillColor=none;top=0;left=0;bottom=0;right=0;align=left;spacingLeft=6;fontStyle=5;overflow=hidden;whiteSpace=wrap;html=1;" vertex="1" parent="7qyP2Q42e92TkhKGGYAC-2">
          <mxGeometry x="29.90476190476187" width="200.09523809523813" height="30" as="geometry">
            <mxRectangle width="200.09523809523813" height="30" as="alternateBounds" />
          </mxGeometry>
        </mxCell>
        <mxCell id="7qyP2Q42e92TkhKGGYAC-5" value="" style="shape=tableRow;horizontal=0;startSize=0;swimlaneHead=0;swimlaneBody=0;fillColor=none;collapsible=0;dropTarget=0;points=[[0,0.5],[1,0.5]];portConstraint=eastwest;top=0;left=0;right=0;bottom=0;" vertex="1" parent="7qyP2Q42e92TkhKGGYAC-1">
          <mxGeometry y="60" width="230" height="30" as="geometry" />
        </mxCell>
        <mxCell id="7qyP2Q42e92TkhKGGYAC-6" value="" style="shape=partialRectangle;connectable=0;fillColor=none;top=0;left=0;bottom=0;right=0;editable=1;overflow=hidden;whiteSpace=wrap;html=1;" vertex="1" parent="7qyP2Q42e92TkhKGGYAC-5">
          <mxGeometry width="29.90476190476187" height="30" as="geometry">
            <mxRectangle width="29.90476190476187" height="30" as="alternateBounds" />
          </mxGeometry>
        </mxCell>
        <mxCell id="7qyP2Q42e92TkhKGGYAC-7" value="Dni VARCHAR(8)" style="shape=partialRectangle;connectable=0;fillColor=none;top=0;left=0;bottom=0;right=0;align=left;spacingLeft=6;overflow=hidden;whiteSpace=wrap;html=1;" vertex="1" parent="7qyP2Q42e92TkhKGGYAC-5">
          <mxGeometry x="29.90476190476187" width="200.09523809523813" height="30" as="geometry">
            <mxRectangle width="200.09523809523813" height="30" as="alternateBounds" />
          </mxGeometry>
        </mxCell>
        <mxCell id="7qyP2Q42e92TkhKGGYAC-8" value="" style="shape=tableRow;horizontal=0;startSize=0;swimlaneHead=0;swimlaneBody=0;fillColor=none;collapsible=0;dropTarget=0;points=[[0,0.5],[1,0.5]];portConstraint=eastwest;top=0;left=0;right=0;bottom=0;" vertex="1" parent="7qyP2Q42e92TkhKGGYAC-1">
          <mxGeometry y="90" width="230" height="30" as="geometry" />
        </mxCell>
        <mxCell id="7qyP2Q42e92TkhKGGYAC-9" value="" style="shape=partialRectangle;connectable=0;fillColor=none;top=0;left=0;bottom=0;right=0;editable=1;overflow=hidden;whiteSpace=wrap;html=1;" vertex="1" parent="7qyP2Q42e92TkhKGGYAC-8">
          <mxGeometry width="29.90476190476187" height="30" as="geometry">
            <mxRectangle width="29.90476190476187" height="30" as="alternateBounds" />
          </mxGeometry>
        </mxCell>
        <mxCell id="7qyP2Q42e92TkhKGGYAC-10" value="Nombre VARCHAR(45)" style="shape=partialRectangle;connectable=0;fillColor=none;top=0;left=0;bottom=0;right=0;align=left;spacingLeft=6;overflow=hidden;whiteSpace=wrap;html=1;" vertex="1" parent="7qyP2Q42e92TkhKGGYAC-8">
          <mxGeometry x="29.90476190476187" width="200.09523809523813" height="30" as="geometry">
            <mxRectangle width="200.09523809523813" height="30" as="alternateBounds" />
          </mxGeometry>
        </mxCell>
        <mxCell id="7qyP2Q42e92TkhKGGYAC-11" value="" style="shape=tableRow;horizontal=0;startSize=0;swimlaneHead=0;swimlaneBody=0;fillColor=none;collapsible=0;dropTarget=0;points=[[0,0.5],[1,0.5]];portConstraint=eastwest;top=0;left=0;right=0;bottom=0;" vertex="1" parent="7qyP2Q42e92TkhKGGYAC-1">
          <mxGeometry y="120" width="230" height="30" as="geometry" />
        </mxCell>
        <mxCell id="7qyP2Q42e92TkhKGGYAC-12" value="" style="shape=partialRectangle;connectable=0;fillColor=none;top=0;left=0;bottom=0;right=0;editable=1;overflow=hidden;whiteSpace=wrap;html=1;" vertex="1" parent="7qyP2Q42e92TkhKGGYAC-11">
          <mxGeometry width="29.90476190476187" height="30" as="geometry">
            <mxRectangle width="29.90476190476187" height="30" as="alternateBounds" />
          </mxGeometry>
        </mxCell>
        <mxCell id="7qyP2Q42e92TkhKGGYAC-13" value="Apellido VARCHAR(45)" style="shape=partialRectangle;connectable=0;fillColor=none;top=0;left=0;bottom=0;right=0;align=left;spacingLeft=6;overflow=hidden;whiteSpace=wrap;html=1;" vertex="1" parent="7qyP2Q42e92TkhKGGYAC-11">
          <mxGeometry x="29.90476190476187" width="200.09523809523813" height="30" as="geometry">
            <mxRectangle width="200.09523809523813" height="30" as="alternateBounds" />
          </mxGeometry>
        </mxCell>
        <mxCell id="7qyP2Q42e92TkhKGGYAC-14" value="Plan" style="shape=table;startSize=30;container=1;collapsible=1;childLayout=tableLayout;fixedRows=1;rowLines=0;fontStyle=1;align=center;resizeLast=1;html=1;verticalAlign=top;" vertex="1" parent="1">
          <mxGeometry x="496" y="204" width="180" height="177.21" as="geometry" />
        </mxCell>
        <mxCell id="7qyP2Q42e92TkhKGGYAC-15" value="" style="shape=tableRow;horizontal=0;startSize=0;swimlaneHead=0;swimlaneBody=0;fillColor=none;collapsible=0;dropTarget=0;points=[[0,0.5],[1,0.5]];portConstraint=eastwest;top=0;left=0;right=0;bottom=1;" vertex="1" parent="7qyP2Q42e92TkhKGGYAC-14">
          <mxGeometry y="30" width="180" height="30" as="geometry" />
        </mxCell>
        <mxCell id="7qyP2Q42e92TkhKGGYAC-16" value="PK" style="shape=partialRectangle;connectable=0;fillColor=none;top=0;left=0;bottom=0;right=0;fontStyle=1;overflow=hidden;whiteSpace=wrap;html=1;" vertex="1" parent="7qyP2Q42e92TkhKGGYAC-15">
          <mxGeometry width="30" height="30" as="geometry">
            <mxRectangle width="30" height="30" as="alternateBounds" />
          </mxGeometry>
        </mxCell>
        <mxCell id="7qyP2Q42e92TkhKGGYAC-17" value="plan_id INT" style="shape=partialRectangle;connectable=0;fillColor=none;top=0;left=0;bottom=0;right=0;align=left;spacingLeft=6;fontStyle=5;overflow=hidden;whiteSpace=wrap;html=1;" vertex="1" parent="7qyP2Q42e92TkhKGGYAC-15">
          <mxGeometry x="30" width="150" height="30" as="geometry">
            <mxRectangle width="150" height="30" as="alternateBounds" />
          </mxGeometry>
        </mxCell>
        <mxCell id="7qyP2Q42e92TkhKGGYAC-18" value="" style="shape=tableRow;horizontal=0;startSize=0;swimlaneHead=0;swimlaneBody=0;fillColor=none;collapsible=0;dropTarget=0;points=[[0,0.5],[1,0.5]];portConstraint=eastwest;top=0;left=0;right=0;bottom=0;" vertex="1" parent="7qyP2Q42e92TkhKGGYAC-14">
          <mxGeometry y="60" width="180" height="25" as="geometry" />
        </mxCell>
        <mxCell id="7qyP2Q42e92TkhKGGYAC-19" value="" style="shape=partialRectangle;connectable=0;fillColor=none;top=0;left=0;bottom=0;right=0;editable=1;overflow=hidden;whiteSpace=wrap;html=1;" vertex="1" parent="7qyP2Q42e92TkhKGGYAC-18">
          <mxGeometry width="30" height="25" as="geometry">
            <mxRectangle width="30" height="25" as="alternateBounds" />
          </mxGeometry>
        </mxCell>
        <mxCell id="7qyP2Q42e92TkhKGGYAC-20" value="" style="shape=partialRectangle;connectable=0;fillColor=none;top=0;left=0;bottom=0;right=0;align=left;spacingLeft=6;overflow=hidden;whiteSpace=wrap;html=1;" vertex="1" parent="7qyP2Q42e92TkhKGGYAC-18">
          <mxGeometry x="30" width="150" height="25" as="geometry">
            <mxRectangle width="150" height="25" as="alternateBounds" />
          </mxGeometry>
        </mxCell>
        <mxCell id="7qyP2Q42e92TkhKGGYAC-21" value="" style="shape=tableRow;horizontal=0;startSize=0;swimlaneHead=0;swimlaneBody=0;fillColor=none;collapsible=0;dropTarget=0;points=[[0,0.5],[1,0.5]];portConstraint=eastwest;top=0;left=0;right=0;bottom=0;" vertex="1" parent="7qyP2Q42e92TkhKGGYAC-14">
          <mxGeometry y="85" width="180" height="20" as="geometry" />
        </mxCell>
        <mxCell id="7qyP2Q42e92TkhKGGYAC-22" value="" style="shape=partialRectangle;connectable=0;fillColor=none;top=0;left=0;bottom=0;right=0;editable=1;overflow=hidden;whiteSpace=wrap;html=1;" vertex="1" parent="7qyP2Q42e92TkhKGGYAC-21">
          <mxGeometry width="30" height="20" as="geometry">
            <mxRectangle width="30" height="20" as="alternateBounds" />
          </mxGeometry>
        </mxCell>
        <mxCell id="7qyP2Q42e92TkhKGGYAC-23" value="" style="shape=partialRectangle;connectable=0;fillColor=none;top=0;left=0;bottom=0;right=0;align=left;spacingLeft=6;overflow=hidden;whiteSpace=wrap;html=1;" vertex="1" parent="7qyP2Q42e92TkhKGGYAC-21">
          <mxGeometry x="30" width="150" height="20" as="geometry">
            <mxRectangle width="150" height="20" as="alternateBounds" />
          </mxGeometry>
        </mxCell>
        <mxCell id="7qyP2Q42e92TkhKGGYAC-24" value="" style="shape=tableRow;horizontal=0;startSize=0;swimlaneHead=0;swimlaneBody=0;fillColor=none;collapsible=0;dropTarget=0;points=[[0,0.5],[1,0.5]];portConstraint=eastwest;top=0;left=0;right=0;bottom=0;verticalAlign=top;" vertex="1" parent="7qyP2Q42e92TkhKGGYAC-14">
          <mxGeometry y="105" width="180" height="71" as="geometry" />
        </mxCell>
        <mxCell id="7qyP2Q42e92TkhKGGYAC-25" value="" style="shape=partialRectangle;connectable=0;fillColor=none;top=0;left=0;bottom=0;right=0;editable=1;overflow=hidden;whiteSpace=wrap;html=1;" vertex="1" parent="7qyP2Q42e92TkhKGGYAC-24">
          <mxGeometry width="30" height="71" as="geometry">
            <mxRectangle width="30" height="71" as="alternateBounds" />
          </mxGeometry>
        </mxCell>
        <mxCell id="7qyP2Q42e92TkhKGGYAC-26" value="megas DOUBLE&lt;br&gt;precio DOUBLE&lt;br&gt;descuento DOUBLE" style="shape=partialRectangle;connectable=0;fillColor=none;top=0;left=0;bottom=0;right=0;align=left;spacingLeft=6;overflow=hidden;whiteSpace=wrap;html=1;verticalAlign=top;" vertex="1" parent="7qyP2Q42e92TkhKGGYAC-24">
          <mxGeometry x="30" width="150" height="71" as="geometry">
            <mxRectangle width="150" height="71" as="alternateBounds" />
          </mxGeometry>
        </mxCell>
        <mxCell id="7qyP2Q42e92TkhKGGYAC-28" value="Ciudad VARCHAR(45)" style="shape=partialRectangle;connectable=0;fillColor=none;top=0;left=0;bottom=0;right=0;align=left;spacingLeft=6;overflow=hidden;whiteSpace=wrap;html=1;" vertex="1" parent="1">
          <mxGeometry x="170" y="330" width="150" height="30" as="geometry">
            <mxRectangle width="150" height="30" as="alternateBounds" />
          </mxGeometry>
        </mxCell>
        <mxCell id="7qyP2Q42e92TkhKGGYAC-29" value="Fecha_nacimiento DATETIME" style="shape=partialRectangle;connectable=0;fillColor=none;top=0;left=0;bottom=0;right=0;align=left;spacingLeft=6;overflow=hidden;whiteSpace=wrap;html=1;" vertex="1" parent="1">
          <mxGeometry x="170" y="270" width="190" height="30" as="geometry">
            <mxRectangle width="150" height="30" as="alternateBounds" />
          </mxGeometry>
        </mxCell>
        <mxCell id="7qyP2Q42e92TkhKGGYAC-30" value="Provincia VARCHAR(45)" style="shape=partialRectangle;connectable=0;fillColor=none;top=0;left=0;bottom=0;right=0;align=left;spacingLeft=6;overflow=hidden;whiteSpace=wrap;html=1;" vertex="1" parent="1">
          <mxGeometry x="170" y="300" width="150" height="30" as="geometry">
            <mxRectangle width="150" height="30" as="alternateBounds" />
          </mxGeometry>
        </mxCell>
        <mxCell id="7qyP2Q42e92TkhKGGYAC-32" value="plan_id" style="shape=partialRectangle;connectable=0;fillColor=none;top=0;left=0;bottom=0;right=0;align=left;spacingLeft=6;overflow=hidden;whiteSpace=wrap;html=1;" vertex="1" parent="1">
          <mxGeometry x="170" y="360" width="150" height="25" as="geometry">
            <mxRectangle width="150" height="25" as="alternateBounds" />
          </mxGeometry>
        </mxCell>
        <mxCell id="7qyP2Q42e92TkhKGGYAC-33" value="FK" style="shape=partialRectangle;connectable=0;fillColor=none;top=0;left=0;bottom=0;right=0;fontStyle=1;overflow=hidden;whiteSpace=wrap;html=1;" vertex="1" parent="1">
          <mxGeometry x="140" y="357.5" width="30" height="30" as="geometry">
            <mxRectangle width="30" height="30" as="alternateBounds" />
          </mxGeometry>
        </mxCell>
        <mxCell id="7qyP2Q42e92TkhKGGYAC-31" value="" style="edgeStyle=entityRelationEdgeStyle;fontSize=12;html=1;endArrow=ERoneToMany;rounded=0;startArrow=ERone;startFill=0;" edge="1" parent="1" source="7qyP2Q42e92TkhKGGYAC-15" target="7qyP2Q42e92TkhKGGYAC-2">
          <mxGeometry width="100" height="100" relative="1" as="geometry">
            <mxPoint x="410" y="470" as="sourcePoint" />
            <mxPoint x="510" y="370" as="targetPoint" />
          </mxGeometry>
        </mxCell>
        <mxCell id="I6dY7cVABhEkrhku_t5w-3" value="&lt;span id=&quot;docs-internal-guid-7ed5c7e5-7fff-ad25-b5b5-cb1fd85bbf16&quot; style=&quot;&quot;&gt;&lt;p style=&quot;font-weight: bold; line-height: 1.8; margin-left: 3.25984pt; text-indent: -18pt; text-align: justify; margin-top: 0pt; margin-bottom: 6pt; padding: 0pt 0pt 0pt 18pt;&quot; dir=&quot;ltr&quot;&gt;&lt;span style=&quot;font-size: 11pt; font-family: &amp;quot;Proxima Nova&amp;quot;, sans-serif; color: rgb(102, 102, 102); background-color: transparent; font-weight: 700; font-style: normal; font-variant: normal; text-decoration: none; vertical-align: baseline;&quot;&gt;a. &lt;/span&gt;&lt;span style=&quot;font-size: 11pt; font-family: &amp;quot;Proxima Nova&amp;quot;, sans-serif; color: rgb(102, 102, 102); background-color: transparent; font-weight: 400; font-style: normal; font-variant: normal; text-decoration: none; vertical-align: baseline;&quot;&gt;Â¿CuÃ¡l es la primary key para la tabla de clientes? Justificar respuesta&lt;/span&gt;&lt;/p&gt;&lt;p style=&quot;line-height: 1.8; margin-left: 3.25984pt; text-indent: -18pt; text-align: justify; margin-top: 0pt; margin-bottom: 6pt; padding: 0pt 0pt 0pt 18pt;&quot; dir=&quot;ltr&quot;&gt;&lt;font style=&quot;&quot; face=&quot;Proxima Nova, sans-serif&quot; color=&quot;#666666&quot;&gt;&lt;span style=&quot;font-size: 14.6667px;&quot;&gt;La PK es cliente_id, porque es el registro que puede identificar a cada cliente &lt;/span&gt;&lt;span style=&quot;font-size: 14.6667px;&quot;&gt;inequÃ­vocamente&lt;/span&gt;&lt;span style=&quot;font-weight: normal; font-size: 14.6667px;&quot;&gt;&lt;b&gt;.&amp;nbsp;&lt;/b&gt;&lt;/span&gt;&lt;/font&gt;&lt;/p&gt;&lt;br&gt;&lt;p style=&quot;font-weight: bold; line-height: 1.8; margin-left: 3.25984pt; text-indent: -18pt; text-align: justify; margin-top: 0pt; margin-bottom: 6pt; padding: 0pt 0pt 0pt 18pt;&quot; dir=&quot;ltr&quot;&gt;&lt;span style=&quot;font-size: 11pt; font-family: &amp;quot;Proxima Nova&amp;quot;, sans-serif; color: rgb(102, 102, 102); background-color: transparent; font-weight: 700; font-style: normal; font-variant: normal; text-decoration: none; vertical-align: baseline;&quot;&gt;b&lt;/span&gt;&lt;span style=&quot;font-size: 11pt; font-family: &amp;quot;Proxima Nova&amp;quot;, sans-serif; color: rgb(102, 102, 102); background-color: transparent; font-weight: 400; font-style: normal; font-variant: normal; text-decoration: none; vertical-align: baseline;&quot;&gt;. Â¿CuÃ¡l es la primary key para la tabla de planes de internet? Justificar respuesta.&lt;/span&gt;&lt;/p&gt;&lt;p style=&quot;font-weight: bold; line-height: 1.8; margin-left: 3.25984pt; text-indent: -18pt; text-align: justify; margin-top: 0pt; margin-bottom: 6pt; padding: 0pt 0pt 0pt 18pt;&quot; dir=&quot;ltr&quot;&gt;&lt;span style=&quot;font-size: 11pt; font-family: &amp;quot;Proxima Nova&amp;quot;, sans-serif; color: rgb(102, 102, 102); background-color: transparent; font-weight: 400; font-style: normal; font-variant: normal; text-decoration: none; vertical-align: baseline;&quot;&gt;La PK es plan_id, porque es el registro que puede identificar a cada plan&amp;nbsp;&lt;span style=&quot;border-color: var(--border-color);&quot;&gt;inequÃ­vocamente&lt;/span&gt;&lt;span style=&quot;border-color: var(--border-color);&quot;&gt;&lt;b style=&quot;border-color: var(--border-color);&quot;&gt;.&amp;nbsp;&lt;/b&gt;&lt;/span&gt;&lt;/span&gt;&lt;/p&gt;&lt;br&gt;&lt;span style=&quot;font-weight: 700; font-size: 11pt; font-family: &amp;quot;Proxima Nova&amp;quot;, sans-serif; color: rgb(102, 102, 102); background-color: transparent; font-style: normal; font-variant: normal; text-decoration: none; vertical-align: baseline;&quot;&gt;c.&lt;/span&gt;&lt;span style=&quot;font-weight: 400; font-size: 11pt; font-family: &amp;quot;Proxima Nova&amp;quot;, sans-serif; color: rgb(102, 102, 102); background-color: transparent; font-style: normal; font-variant: normal; text-decoration: none; vertical-align: baseline;&quot;&gt; Â¿CÃ³mo serÃ­an las relaciones entre tablas? Â¿En quÃ© tabla deberÃ­a haber foreign key? Â¿A quÃ© campo de quÃ© tabla hace referencia dicha foreign key? Justificar respuesta.&lt;br&gt;&lt;br&gt;La relaciÃ³n es de uno a muchos, la tabla donde hay una FK es la de Cliente, y hace referencia al campo plan_id que es PK de la tabla Plan.&lt;br&gt;&lt;/span&gt;&lt;/span&gt;" style="text;strokeColor=none;fillColor=none;align=left;verticalAlign=middle;spacingLeft=4;spacingRight=4;overflow=hidden;points=[[0,0.5],[1,0.5]];portConstraint=eastwest;rotatable=0;whiteSpace=wrap;html=1;" vertex="1" parent="1">
          <mxGeometry x="133" y="423" width="601" height="350" as="geometry" />
        </mxCell>
      </root>
    </mxGraphModel>
  </diagram>
</mxfile>
